<?xml version="1.0" encoding="UTF-8" standalone="no"?>
<svg
   xmlns:dc="http://purl.org/dc/elements/1.1/"
   xmlns:cc="http://creativecommons.org/ns#"
   xmlns:rdf="http://www.w3.org/1999/02/22-rdf-syntax-ns#"
   xmlns:svg="http://www.w3.org/2000/svg"
   xmlns="http://www.w3.org/2000/svg"
   xml:space="preserve"
   style="enable-background:new 0 0 211.337 211.337;"
   viewBox="0 0 211.337 211.337"
   y="0px"
   x="0px"
   id="Capa_1"
   version="1.1"><metadata
     id="metadata6134"><rdf:RDF><cc:Work
         rdf:about=""><dc:format>image/svg+xml</dc:format><dc:type
           rdf:resource="http://purl.org/dc/dcmitype/StillImage" /><dc:title></dc:title></cc:Work></rdf:RDF></metadata><defs
     id="defs6132" /><g
     id="g6099" /><g
     id="g6101" /><g
     id="g6103" /><g
     id="g6105" /><g
     id="g6107" /><g
     id="g6109" /><g
     id="g6111" /><g
     id="g6113" /><g
     id="g6115" /><g
     id="g6117" /><g
     id="g6119" /><g
     id="g6121" /><g
     id="g6123" /><g
     id="g6125" /><g
     id="g6127" /><g
     id="flowRoot6755"
     style="font-style:normal;font-weight:normal;line-height:1.25;font-family:sans-serif;letter-spacing:0px;word-spacing:0px;fill:#2fa92f;fill-opacity:1;stroke:none"
     transform="matrix(2.8207889,0,0,2.0013999,-164.98088,-113.71876)"
     aria-label="A"><path
       d="m 96.623047,96.710937 -5.351563,14.511723 h 10.722656 z m -2.226563,-3.886718 h 4.472657 l 11.113279,29.160161 h -4.10156 l -2.65625,-7.48047 H 90.080078 l -2.65625,7.48047 H 83.263672 Z M 73.958428,150.29326 c -3.543507,0 -6.426599,-3.66489 -6.426599,-8.17177 0,-4.50439 2.883092,-8.16928 6.426599,-8.16928 h 27.548092 0.001 14.48753 5.18995 v 16.34105 h -5.18995 z m 51.777932,0.35418 h -0.82526 v -16.77215 h 0.82526 c 0.91469,0 1.65646,-0.95652 1.65646,-2.13701 0,-1.18049 -0.74177,-2.13701 -1.65646,-2.13701 h -2.48172 -6.90515 -5.53359 c 3.39641,-3.39529 6.11302,-8.60276 7.48292,-14.86122 1.37685,-6.29222 1.18636,-12.77079 -0.5367,-18.242826 -1.78169,-5.657956 -4.97768,-9.581085 -8.99958,-11.045794 -1.10288,-0.401759 -2.24617,-0.60563 -3.39774,-0.60563 -2.19814,0 -4.43371,0.756503 -6.53808,2.173343 0.596327,-2.718281 1.73499,-6.250337 3.90628,-9.549459 0.59202,-0.900109 0.50688,-2.248565 -0.1905,-3.012334 -0.6977,-0.763768 -1.74293,-0.654353 -2.33495,0.245757 -1.116788,1.697217 -2.000017,3.437172 -2.699043,5.125413 l -1.512689,-1.78227 c 0.208716,-2.266516 0.260396,-7.632556 -3.336787,-10.93296 -1.795279,-1.647209 -4.086172,-2.517829 -6.624873,-2.517829 -1.842985,0 -3.176109,0.447918 -3.321878,0.498779 -0.771582,0.270119 -1.283762,1.212541 -1.217503,2.240018 0.01921,0.299609 0.519468,7.381244 4.455895,11.097083 2.253457,2.127611 4.700059,2.573819 6.355863,2.573819 0.462817,0 0.873952,-0.03462 1.219491,-0.08078 l 2.572825,3.031567 c -0.38927,1.417267 -0.65563,2.718709 -0.838171,3.83252 -2.399892,-1.9122 -5.018103,-2.942668 -7.584964,-2.942668 -1.151575,0 -2.294869,0.203871 -3.397413,0.60563 -4.021901,1.464709 -7.218219,5.38741 -8.999914,11.045794 -1.722726,5.472037 -1.91322,11.950607 -0.536365,18.242827 1.369898,6.25888 4.086504,11.46636 7.482923,14.86122 h -8.387353 c -5.410684,0 -9.812247,5.6789 -9.812247,12.66137 0,6.97992 4.401895,12.65882 9.812247,12.65882 h 42.511896 6.90515 2.48172 c 0.91469,0 1.65646,-0.95653 1.65646,-2.13701 0,-1.18049 -0.74177,-2.13701 -1.65646,-2.13701 z"
       style="fill:#2fa92f;fill-opacity:1"
       id="path984" /></g></svg>